<?xml version="1.0" encoding="UTF-8"?>
<svg id="Capa_2" data-name="Capa 2" xmlns="http://www.w3.org/2000/svg" viewBox="0 0 107 107">
  <defs>
    <style>
      .cls-1 {
        fill: #314e9e;
        stroke-width: 0px;
      }
    </style>
  </defs>
  <g id="Layer_1" data-name="Layer 1">
    <polygon class="cls-1" points="107 58.58 106.78 46.46 87.3 46.81 68.03 47.17 94.93 19.26 86.19 10.85 72.67 24.87 59.29 38.75 58.58 0 46.46 .22 46.82 19.7 46.81 19.7 47.17 38.97 19.26 12.07 10.85 20.81 24.87 34.33 38.75 47.71 0 48.42 .22 60.54 19.7 60.18 19.7 60.18 38.98 59.83 12.07 87.74 20.81 96.15 34.33 82.13 47.71 68.25 48.42 107 60.54 106.78 60.18 87.3 60.18 87.3 59.83 68.02 73.71 81.4 87.74 94.92 96.15 86.19 68.25 59.29 107 58.58"/>
  </g>
</svg>