<?xml version="1.0" encoding="UTF-8"?>
<svg id="Capa_2" data-name="Capa 2" xmlns="http://www.w3.org/2000/svg" viewBox="0 0 55.6 46.02">
  <defs>
    <style>
      .cls-1 {
        fill: #f40000;
        stroke-width: 0px;
      }
    </style>
  </defs>
  <g id="Layer_1" data-name="Layer 1">
    <path class="cls-1" d="m43.69,26.58c-3.82-.2-7.7-.59-11.58-.59-9.9,0-19.79.16-29.69.25-2.32.02-2.41-.06-2.41-2.43,0-3.69-.36-3.37,2.76-3.41,13.07-.16,26.14-.33,39.21-.51.76-.01,1.52-.05,2.76-.1-.71-.8-1.1-1.28-1.54-1.72-4.4-4.42-8.79-8.86-13.25-13.22-1.12-1.1-1.24-1.93.03-2.9.43-.33.79-.74,1.17-1.12,1.09-1.12,2.07-1.12,3.21.03,6.81,6.85,13.63,13.69,20.5,20.47,1.49,1.47.4,2.31-.53,3.24-6.7,6.72-13.4,13.43-20.11,20.14-.17.17-.35.33-.51.51-.95,1.02-1.84,1.12-2.88.03-3.3-3.43-3.27-2.48-.12-5.67,3.97-4.01,7.97-7.99,11.96-11.98.45-.45.9-.9,1.01-1.01"/>
  </g>
</svg>