<?xml version="1.0" encoding="UTF-8"?>
<svg id="Capa_2" data-name="Capa 2" xmlns="http://www.w3.org/2000/svg" viewBox="0 0 46.02 55.6">
  <defs>
    <style>
      .cls-1 {
        fill: #f40000;
        stroke-width: 0px;
      }
    </style>
  </defs>
  <g id="Layer_1" data-name="Layer 1">
    <path class="cls-1" d="m19.44,43.69c.2-3.82.59-7.7.59-11.58,0-9.9-.16-19.79-.25-29.69-.02-2.32.07-2.41,2.43-2.41,3.69,0,3.37-.36,3.41,2.76.16,13.07.33,26.14.51,39.21.01.76.05,1.52.1,2.76.8-.71,1.28-1.1,1.72-1.53,4.42-4.41,8.85-8.79,13.22-13.25,1.1-1.12,1.93-1.24,2.9.03.33.43.74.79,1.12,1.17,1.12,1.09,1.12,2.07-.03,3.21-6.85,6.8-13.69,13.63-20.47,20.5-1.47,1.49-2.31.4-3.24-.53-6.72-6.7-13.43-13.4-20.14-20.11-.17-.17-.33-.35-.51-.51-1.02-.95-1.12-1.84-.03-2.88,3.43-3.3,2.48-3.27,5.67-.12,4.01,3.97,7.99,7.97,11.98,11.96.45.45.9.9,1.01,1.01"/>
  </g>
</svg>