<?xml version="1.0" encoding="UTF-8"?>
<svg id="Capa_2" data-name="Capa 2" xmlns="http://www.w3.org/2000/svg" viewBox="0 0 91.89 90.17">
  <defs>
    <style>
      .cls-1 {
        fill: #f40000;
        stroke-width: 0px;
      }
    </style>
  </defs>
  <g id="Layer_1" data-name="Layer 1">
    <path class="cls-1" d="m66.36,76.7c-5.62-6.26-11.06-12.88-17.09-18.92C33.9,42.39,18.25,27.26,2.72,12c-3.63-3.57-3.64-3.84.03-7.53C8.48-1.28,7.43-1.33,12.34,3.46c20.57,20.08,41.17,40.12,61.76,60.18,1.2,1.17,2.45,2.28,4.45,4.13.14-2.34.28-3.7.29-5.06.02-13.72.1-27.44-.05-41.15-.04-3.45,1.06-4.93,4.55-4.47,1.17.15,2.37.08,3.56.07,3.43-.05,4.95,1.48,4.94,5.04-.07,21.24-.09,42.47.05,63.71.03,4.61-2.96,4.21-5.85,4.22-20.86.03-41.72.03-62.58.04-.53,0-1.06-.03-1.58-.01-3.07.1-4.6-1.11-4.53-4.44.21-10.46-1.23-8.94,8.63-9,12.41-.07,24.82-.02,37.23-.02h3.15Z"/>
  </g>
</svg>