<?xml version="1.0" encoding="utf-8"?>
<!-- Generator: Adobe Illustrator 27.6.1, SVG Export Plug-In . SVG Version: 6.00 Build 0)  -->
<svg version="1.1" id="Capa_2_00000008860017083734439690000007936517836337197969_"
	 xmlns="http://www.w3.org/2000/svg" xmlns:xlink="http://www.w3.org/1999/xlink" x="0px" y="0px" viewBox="0 0 725.7 338.3"
	 style="enable-background:new 0 0 725.7 338.3;" xml:space="preserve">
<style type="text/css">
	.st0{enable-background:new    ;}
	.st1{fill:#13131A;}
	.st2{fill:#F40000;}
	.st3{fill:#314E9E;}
</style>
<g id="Layer_1">
	<g>
		<g class="st0">
			<path class="st1" d="M11.1,112.3V29.6h12.6l36.1,60.4h-6.6l35.6-60.4h12.6l0.1,82.7H87l-0.1-59.9H90l-30.2,50.4h-6.9L22.2,52.4
				h3.5v59.9H11.1z"/>
			<path class="st1" d="M150.1,113.4c-11.3,0-20.2-3.2-26.6-9.6c-6.4-6.4-9.6-15.6-9.6-27.6V29.6h15.4v46.1c0,8.5,1.8,14.7,5.5,18.5
				c3.7,3.9,8.8,5.8,15.5,5.8c6.7,0,11.9-1.9,15.5-5.8c3.6-3.9,5.4-10,5.4-18.5V29.6h15.1v46.7c0,12-3.2,21.3-9.6,27.6
				C170.2,110.2,161.4,113.4,150.1,113.4z"/>
			<path class="st1" d="M224,113.4c-6.5,0-12.6-0.9-18.5-2.8c-5.9-1.8-10.6-4.2-14.1-7.1l5.3-11.9c3.3,2.6,7.4,4.8,12.3,6.5
				c4.9,1.7,9.9,2.6,15,2.6c4.3,0,7.8-0.5,10.5-1.4c2.7-0.9,4.6-2.2,5.9-3.8c1.3-1.6,1.9-3.4,1.9-5.5c0-2.5-0.9-4.5-2.7-6.1
				c-1.8-1.5-4.2-2.8-7-3.7c-2.9-0.9-6.1-1.8-9.6-2.5c-3.5-0.8-7-1.7-10.5-2.8c-3.5-1.1-6.7-2.4-9.6-4.1c-2.9-1.7-5.2-4-7-6.8
				c-1.8-2.8-2.7-6.5-2.7-10.9c0-4.5,1.2-8.6,3.6-12.3c2.4-3.7,6.1-6.7,11-9c4.9-2.2,11.2-3.4,18.7-3.4c5,0,9.9,0.6,14.8,1.9
				c4.9,1.3,9.1,3.1,12.8,5.4l-4.8,11.9c-3.7-2.2-7.5-3.8-11.5-4.9c-3.9-1.1-7.7-1.6-11.3-1.6c-4.3,0-7.7,0.5-10.3,1.5
				c-2.6,1-4.6,2.4-5.8,4c-1.2,1.7-1.8,3.5-1.8,5.7c0,2.5,0.9,4.5,2.7,6.1c1.8,1.5,4.1,2.7,7,3.6c2.9,0.9,6.1,1.7,9.6,2.5
				c3.5,0.8,7.1,1.8,10.6,2.8c3.5,1,6.7,2.4,9.6,4c2.9,1.7,5.2,3.9,7,6.7c1.8,2.8,2.7,6.4,2.7,10.7c0,4.4-1.2,8.5-3.6,12.2
				c-2.4,3.7-6.1,6.7-11,9C237.9,112.3,231.6,113.4,224,113.4z"/>
			<path class="st1" d="M278.7,99.4h46.7v12.9h-62V29.6h60.4v12.9h-45V99.4z M277.5,63.9h41.1v12.6h-41.1V63.9z"/>
			<path class="st1" d="M368.7,113.4c-11.3,0-20.2-3.2-26.6-9.6c-6.4-6.4-9.6-15.6-9.6-27.6V29.6h15.4v46.1c0,8.5,1.8,14.7,5.5,18.5
				c3.7,3.9,8.8,5.8,15.5,5.8c6.7,0,11.9-1.9,15.5-5.8c3.6-3.9,5.4-10,5.4-18.5V29.6h15.1v46.7c0,12-3.2,21.3-9.6,27.6
				C388.8,110.2,380,113.4,368.7,113.4z"/>
			<path class="st1" d="M417.1,112.3V29.6h12.6l36.1,60.4h-6.6l35.6-60.4h12.6l0.1,82.7H493l-0.1-59.9h3.1l-30.2,50.4h-6.9
				l-30.7-50.4h3.5v59.9H417.1z"/>
		</g>
	</g>
	<g class="st0">
		<path class="st1" d="M49.8,208.7c-6.5,0-12.4-1.1-17.8-3.2c-5.4-2.1-10.2-5.1-14.2-8.9c-4-3.8-7.1-8.3-9.3-13.5
			c-2.2-5.2-3.3-10.8-3.3-17c0-6.1,1.1-11.8,3.3-17c2.2-5.2,5.3-9.6,9.3-13.5c4-3.8,8.7-6.8,14.2-8.9c5.4-2.1,11.3-3.2,17.7-3.2
			c6.5,0,12.4,1.1,17.8,3.2c5.4,2.1,10.1,5.1,14.1,8.9c4,3.8,7.1,8.3,9.3,13.5c2.2,5.2,3.3,10.8,3.3,17c0,6.1-1.1,11.8-3.3,17
			c-2.2,5.2-5.3,9.7-9.3,13.5c-4,3.8-8.7,6.7-14.1,8.9C62.1,207.7,56.2,208.7,49.8,208.7z M49.7,195.3c4.2,0,8-0.7,11.6-2.1
			c3.5-1.4,6.6-3.4,9.2-6.1c2.6-2.6,4.6-5.7,6.1-9.2c1.5-3.5,2.2-7.4,2.2-11.6c0-4.3-0.7-8.1-2.2-11.6c-1.5-3.5-3.5-6.6-6.1-9.2
			c-2.6-2.6-5.7-4.7-9.2-6.1c-3.5-1.4-7.4-2.1-11.6-2.1c-4.2,0-8,0.7-11.5,2.1c-3.5,1.4-6.6,3.4-9.2,6.1c-2.6,2.6-4.7,5.7-6.1,9.2
			c-1.5,3.5-2.2,7.4-2.2,11.6c0,4.2,0.7,8,2.2,11.6c1.5,3.5,3.5,6.6,6.1,9.3c2.6,2.6,5.7,4.7,9.2,6.1
			C41.7,194.6,45.5,195.3,49.7,195.3z"/>
		<path class="st1" d="M116.6,207.6h-15.4v-82.7h60.4v12.9h-45V207.6z M115.3,162.9h41.2v13h-41.2V162.9z"/>
		<path class="st1" d="M190.4,207.6v-82.7H203l36.1,60.4h-6.6l35.6-60.4h12.6l0.1,82.7h-14.5l-0.1-59.9h3.1L239,198.1h-6.9
			l-30.7-50.4h3.5v59.9H190.4z"/>
		<path class="st1" d="M332.6,208.7c-6.5,0-12.4-1.1-17.8-3.2c-5.4-2.1-10.2-5.1-14.2-8.9c-4-3.8-7.1-8.3-9.3-13.5
			c-2.2-5.2-3.3-10.8-3.3-17c0-6.1,1.1-11.8,3.3-17c2.2-5.2,5.3-9.6,9.3-13.5c4-3.8,8.7-6.8,14.2-8.9c5.4-2.1,11.3-3.2,17.7-3.2
			c6.5,0,12.4,1.1,17.8,3.2c5.4,2.1,10.1,5.1,14.1,8.9c4,3.8,7.1,8.3,9.3,13.5c2.2,5.2,3.3,10.8,3.3,17c0,6.1-1.1,11.8-3.3,17
			c-2.2,5.2-5.3,9.7-9.3,13.5c-4,3.8-8.7,6.7-14.1,8.9C344.9,207.7,339,208.7,332.6,208.7z M332.5,195.3c4.2,0,8-0.7,11.6-2.1
			c3.5-1.4,6.6-3.4,9.2-6.1c2.6-2.6,4.6-5.7,6.1-9.2c1.5-3.5,2.2-7.4,2.2-11.6c0-4.3-0.7-8.1-2.2-11.6c-1.5-3.5-3.5-6.6-6.1-9.2
			c-2.6-2.6-5.7-4.7-9.2-6.1c-3.5-1.4-7.4-2.1-11.6-2.1c-4.2,0-8,0.7-11.5,2.1c-3.5,1.4-6.6,3.4-9.2,6.1c-2.6,2.6-4.7,5.7-6.1,9.2
			c-1.5,3.5-2.2,7.4-2.2,11.6c0,4.2,0.7,8,2.2,11.6c1.5,3.5,3.5,6.6,6.1,9.3c2.6,2.6,5.7,4.7,9.2,6.1
			C324.4,194.6,328.3,195.3,332.5,195.3z"/>
		<path class="st1" d="M384,207.6v-82.7h36.1c9,0,16.9,1.7,23.6,5.2c6.8,3.5,12,8.3,15.8,14.4c3.8,6.1,5.7,13.4,5.7,21.7
			c0,8.3-1.9,15.5-5.7,21.7c-3.8,6.2-9.1,11-15.8,14.5c-6.8,3.5-14.6,5.2-23.6,5.2H384z M399.3,194.6h20.1c6.2,0,11.6-1.2,16.1-3.5
			c4.5-2.4,8-5.7,10.5-9.9s3.7-9.2,3.7-14.9c0-5.7-1.2-10.7-3.7-14.9c-2.5-4.2-6-7.5-10.5-9.9c-4.5-2.4-9.9-3.5-16.1-3.5h-20.1
			V194.6z"/>
		<path class="st1" d="M487.6,194.7h46.7v12.9h-62v-82.7h60.4v12.9h-45V194.7z M486.4,159.2h41.1v12.6h-41.1V159.2z"/>
		<path class="st1" d="M542,207.6v-82.7h34c7.3,0,13.6,1.2,18.8,3.5c5.2,2.4,9.3,5.7,12.1,10.2c2.8,4.4,4.3,9.6,4.3,15.7
			c0,6.1-1.4,11.3-4.3,15.7c-2.8,4.4-6.9,7.7-12.1,10c-5.2,2.3-11.5,3.5-18.8,3.5h-25.5l6.9-7v31.1H542z M557.4,178.1l-6.9-7.3h24.8
			c6.8,0,11.9-1.5,15.3-4.4c3.4-2.9,5.1-7,5.1-12.2c0-5.3-1.7-9.3-5.1-12.2c-3.4-2.8-8.5-4.3-15.3-4.3h-24.8l6.9-7.6V178.1z
			 M596.1,207.6l-20.9-30h16.4l21,30H596.1z"/>
		<path class="st1" d="M619,207.6v-82.7h12.6l51.9,63.7h-6.3v-63.7h15.2v82.7h-12.6L628,143.9h6.3v63.7H619z"/>
	</g>
	<g class="st0">
		<path class="st1" d="M-0.6,305.5l37.2-82.7h15.1L89,305.5H73l-32-74.5h6.1l-31.9,74.5H-0.6z M16.5,286.3l4.1-12h44.7l4.1,12H16.5z
			"/>
	</g>
	<g class="st0">
		<path class="st1" d="M89.6,305.5v-82.7h34c7.3,0,13.6,1.2,18.8,3.5c5.2,2.4,9.3,5.7,12.1,10.2c2.8,4.4,4.3,9.6,4.3,15.7
			c0,6.1-1.4,11.3-4.3,15.7c-2.8,4.4-6.9,7.7-12.1,10c-5.2,2.3-11.5,3.5-18.8,3.5H98.1l6.9-7v31.1H89.6z M104.9,276.1l-6.9-7.3h24.8
			c6.8,0,11.9-1.5,15.3-4.4c3.4-2.9,5.1-7,5.1-12.2c0-5.3-1.7-9.3-5.1-12.2c-3.4-2.8-8.5-4.3-15.3-4.3H98.1l6.9-7.6V276.1z
			 M143.7,305.5l-20.9-30h16.4l21,30H143.7z"/>
	</g>
	<g class="st0">
		<path class="st1" d="M183.3,305.5v-69.7h-27.4v-13h70.2v13h-27.4v69.7H183.3z"/>
	</g>
	<path class="st2" d="M313.9,295.3c-5.3-5.9-10.4-12.1-16.1-17.8c-14.5-14.5-29.2-28.7-43.8-43.1c-3.4-3.4-3.4-3.6,0-7.1
		c5.4-5.4,4.4-5.5,9-1c19.4,18.9,38.7,37.8,58.1,56.6c1.1,1.1,2.3,2.1,4.2,3.9c0.1-2.2,0.3-3.5,0.3-4.8c0-12.9,0.1-25.8,0-38.7
		c0-3.2,1-4.6,4.3-4.2c1.1,0.1,2.2,0.1,3.4,0.1c3.2,0,4.7,1.4,4.6,4.7c-0.1,20-0.1,40,0,60c0,4.3-2.8,4-5.5,4c-19.6,0-39.3,0-58.9,0
		c-0.5,0-1,0-1.5,0c-2.9,0.1-4.3-1-4.3-4.2c0.2-9.8-1.2-8.4,8.1-8.5c11.7-0.1,23.4,0,35,0L313.9,295.3L313.9,295.3z"/>
	<polygon class="st3" points="458.4,268 458.2,256.6 439.8,256.9 421.7,257.3 447,231 438.8,223.1 426.1,236.3 413.5,249.4 
		412.8,212.9 401.4,213.1 401.7,231.4 401.7,231.4 402.1,249.6 375.8,224.3 367.9,232.5 381.1,245.2 394.1,257.8 357.7,258.5 
		357.9,269.9 376.2,269.5 376.2,269.5 394.4,269.2 369,295.5 377.3,303.4 390,290.2 402.6,277.1 403.2,313.6 414.7,313.4 
		414.3,295.1 414.3,295.1 414,276.9 427,289.5 440.3,302.2 448.2,294 421.9,268.7 	"/>
</g>
</svg>
